<?xml version="1.0" encoding="utf-8"?>
<!-- Svg Vector Icons : http://www.onlinewebfonts.com/icon -->
<!DOCTYPE svg PUBLIC "-//W3C//DTD SVG 1.1//EN" "http://www.w3.org/Graphics/SVG/1.1/DTD/svg11.dtd">
<svg version="1.1" xmlns="http://www.w3.org/2000/svg" xmlns:xlink="http://www.w3.org/1999/xlink" x="0px" y="0px" viewBox="0 0 1000 1000" enable-background="new 0 0 1000 1000" xml:space="preserve">
<metadata> Svg Vector Icons : http://www.onlinewebfonts.com/icon </metadata>
<style>path{fill:#fff}</style>
<g><path d="M785.1,293.7H437.9c0-81.4,0-153.2,0-170c0-41.1-29.3-58.3-65.3-34.9L37,306.3C1,329.7,1,367.9,37.1,391.2L370,606.5c36.1,23.3,67.8-0.4,67.8-35c0-13,0-73.7,0-146.6h249.3c138.6,0,137.7,170.4,137.7,170.4s7.8,193.6-137.4,193.6H174.5c0,0-60.8,5.8-60.8,68.3c0,62.5,60.9,64.6,60.9,64.6h610.5c202.5,0,204.9-329.6,204.9-329.6S987.6,293.7,785.1,293.7z"/></g>
</svg>